<svg aria-hidden="true" style="position: absolute; width: 0; height: 0; overflow: hidden;" version="1.1" xmlns="http://www.w3.org/2000/svg" xmlns:xlink="http://www.w3.org/1999/xlink">
    <defs>
        <symbol id="icon-7" viewBox="0 0 32 32">
            <path stroke-linejoin="round" stroke-linecap="round" stroke-miterlimit="4" stroke-width="2.6667" d="M16 27.296c1.415 1.267 3.284 2.037 5.333 2.037 4.418 0 8-3.582 8-8 0-3.689-2.497-6.795-5.893-7.72M8.56 13.614c-3.396 0.925-5.894 4.031-5.894 7.72 0 4.418 3.582 8 8 8s8-3.582 8-8c0-1.041-0.199-2.035-0.56-2.947M24 10.667c0 4.418-3.582 8-8 8s-8-3.582-8-8 3.582-8 8-8c4.418 0 8 3.582 8 8z"></path>
        </symbol>

        <symbol id="icon-8" viewBox="0 0 28 32">
            <path stroke-linejoin="round" stroke-linecap="round" stroke-miterlimit="4" stroke-width="2.6667" d="M13.186 3.242c0.378-0.21 0.567-0.315 0.767-0.356 0.177-0.036 0.36-0.036 0.537 0 0.2 0.041 0.389 0.146 0.767 0.356l9.867 5.482c0.399 0.222 0.599 0.333 0.744 0.491 0.129 0.14 0.226 0.305 0.285 0.485 0.067 0.204 0.067 0.432 0.067 0.889v10.823c0 0.457 0 0.685-0.067 0.889-0.060 0.18-0.157 0.346-0.285 0.485-0.145 0.158-0.345 0.269-0.744 0.491l-9.867 5.482c-0.378 0.21-0.567 0.315-0.767 0.356-0.177 0.036-0.36 0.036-0.537 0-0.2-0.041-0.389-0.146-0.767-0.356l-9.867-5.482c-0.399-0.222-0.599-0.333-0.744-0.491-0.129-0.14-0.226-0.305-0.286-0.485-0.067-0.204-0.067-0.432-0.067-0.889v-10.823c0-0.457 0-0.685 0.067-0.889 0.060-0.18 0.157-0.346 0.286-0.485 0.145-0.158 0.345-0.269 0.744-0.491l9.867-5.481z"></path>
        </symbol>
    </defs>
</svg>
